<svg xmlns="http://www.w3.org/2000/svg" width="121.468" height="29.131" viewBox="0 0 121.468 29.131">
  <g id="Sentinel" transform="translate(-97.642 -412.6)">
    <path id="Path_1" d="M101.348,415.843A12.067,12.067,0,0,1,109,412.6H111.9c-.052,1.029,0,2.075-.035,3.1a11.517,11.517,0,0,1-2.423,6.381,11.954,11.954,0,0,1-7.775,4.5,34.113,34.113,0,0,1-4.01.122c.017-1.133-.052-2.284.035-3.417A11.911,11.911,0,0,1,101.348,415.843Z" fill="#434683"/>
    <path id="Path_2" d="M184.6,412.6c1.029.017,2.075,0,3.1,0a12.069,12.069,0,0,1,7.078,2.894,11.808,11.808,0,0,1,3.992,7.287c.157,1.307.052,2.615.122,3.94h-2.7a12.13,12.13,0,0,1-6.259-1.987,10.9,10.9,0,0,1-2.388-2.092,11.449,11.449,0,0,1-2.737-5.648A26.408,26.408,0,0,1,184.6,412.6Z" transform="translate(-71.798)" fill="#434683"/>
    <path id="Path_3" d="M97.738,498.3c.924.052,1.848-.052,2.754.052a11.952,11.952,0,0,1,9.763,5.631,11.182,11.182,0,0,1,1.708,6.311c0,.732.017,1.447-.017,2.162a25.987,25.987,0,0,1-4.358-.209,11.906,11.906,0,0,1-7.915-5.16,11.444,11.444,0,0,1-1.935-6.782C97.721,499.66,97.721,498.98,97.738,498.3Z" transform="translate(-0.068 -70.76)" fill="#434683"/>
    <path id="Path_4" d="M194,498.588a22.189,22.189,0,0,1,4.812-.3l.07.07a24.807,24.807,0,0,1-.227,4.55,11.849,11.849,0,0,1-5.858,8.019,12.368,12.368,0,0,1-6.137,1.517c-.68,0-1.36-.017-2.04.017a33.945,33.945,0,0,1,.087-3.766,11.716,11.716,0,0,1,4.306-7.74A11.9,11.9,0,0,1,194,498.588Z" transform="translate(-71.803 -70.734)" fill="#434683"/>
    <g id="Group_1" data-name="Group 1" transform="translate(134.018 417.534)">
      <path id="Path_1-2" data-name="Path 1" d="M306.3,460.469l1.046-3.992h.8l.907,3.5a5.43,5.43,0,0,0,2.58.593c2.406,0,3.731-1.1,3.731-2.65,0-1.8-1.726-2.65-3.905-3.7-2.493-1.168-4.724-2.319-4.724-4.951,0-2.615,2.2-4.777,6.084-4.777a10.769,10.769,0,0,1,4.724,1.116l-.976,3.818h-.837l-.854-3.33a5.246,5.246,0,0,0-2.388-.54c-2.144,0-3.208.924-3.208,2.388,0,1.761,1.552,2.493,3.609,3.434,2.615,1.22,5.143,2.458,5.143,5.282,0,2.7-2.493,4.968-6.677,4.968A11.131,11.131,0,0,1,306.3,460.469Z" transform="translate(-306.3 -443.872)" fill="#434683"/>
      <path id="Path_2-2" data-name="Path 2" d="M386.443,487.793c-3.417,0-5.143-2.441-5.143-5.4,0-3.452,2.249-6.189,5.805-6.189a4.079,4.079,0,0,1,4.271,4.428v1.116h-7.13c0,2.58,1.1,4.271,3.5,4.271a4.313,4.313,0,0,0,3-1.185l.54.662A6.4,6.4,0,0,1,386.443,487.793Zm-2.162-6.956,4.306-.174c0-1.9-.54-3.539-2-3.539C385.188,477.141,384.421,478.8,384.281,480.837Z" transform="translate(-368.225 -470.046)" fill="#434683"/>
      <path id="Path_3-2" data-name="Path 3" d="M448.593,483.862a5.322,5.322,0,0,0,.227,2.214c.227.418.61.488,1.395.61v.715c-1.482-.07-1.674-.1-3-.1-1.342,0-1.534.017-3.016.1v-.715c.732-.122,1.168-.192,1.36-.54a5.136,5.136,0,0,0,.244-2.319V480.01c0-1.116,0-1.656-.244-1.953-.192-.261-.558-.314-1.307-.436v-.732a15.2,15.2,0,0,0,3.94-.837l.54.3a17.1,17.1,0,0,0-.122,1.726A5.3,5.3,0,0,1,452.585,476c2.214,0,3.905,1.43,3.905,4.236v3.609a5.888,5.888,0,0,0,.192,2.214c.227.418.628.488,1.412.61v.715c-1.482-.07-1.674-.1-3.016-.1-1.308,0-1.517.017-3,.1v-.715c.715-.122,1.151-.192,1.36-.54a5.729,5.729,0,0,0,.244-2.319v-2.284c0-2.458-.854-3.452-2.528-3.452a3.961,3.961,0,0,0-2.528.854v4.934Z" transform="translate(-420.16 -469.881)" fill="#434683"/>
      <path id="Path_4-2" data-name="Path 4" d="M527.912,471.84v-6.9H526.5v-.8a4.66,4.66,0,0,0,3.382-3.434h.837v3.068l3.661-.139v1.307h-3.661v5.875c0,2.075.61,2.685,1.97,2.685a4,4,0,0,0,1.464-.262l.314.854a8.62,8.62,0,0,1-3.539.924A2.832,2.832,0,0,1,527.912,471.84Z" transform="translate(-488.112 -457.248)" fill="#434683"/>
      <path id="Path_5" data-name="Path 5" d="M578.293,459.175a5.321,5.321,0,0,0,.227,2.214c.227.418.61.488,1.395.61v.715c-1.482-.07-1.674-.1-3-.1-1.342,0-1.534.017-3.016.1V462c.732-.122,1.168-.192,1.36-.54a5.137,5.137,0,0,0,.244-2.319v-3.818c0-1.116,0-1.656-.244-1.953-.192-.261-.558-.314-1.307-.436V452.2a15.353,15.353,0,0,0,3.94-.837l.54.3a23.321,23.321,0,0,0-.122,2.877v4.637ZM575,447.826a1.726,1.726,0,1,1,1.726,1.726A1.708,1.708,0,0,1,575,447.826Z" transform="translate(-527.249 -445.193)" fill="#434683"/>
      <path id="Path_6" data-name="Path 6" d="M618.193,483.862a5.322,5.322,0,0,0,.227,2.214c.227.418.61.488,1.395.61v.715c-1.482-.07-1.674-.1-3-.1-1.342,0-1.534.017-3.016.1v-.715c.732-.122,1.168-.192,1.36-.54a5.136,5.136,0,0,0,.244-2.319V480.01c0-1.116,0-1.656-.244-1.953-.192-.261-.558-.314-1.307-.436v-.732a15.2,15.2,0,0,0,3.94-.837l.54.3a17.116,17.116,0,0,0-.122,1.726A5.3,5.3,0,0,1,622.185,476c2.214,0,3.905,1.43,3.905,4.236v3.609a5.888,5.888,0,0,0,.192,2.214c.227.418.628.488,1.412.61v.715c-1.482-.07-1.674-.1-3.016-.1-1.307,0-1.517.017-3,.1v-.715c.715-.122,1.151-.192,1.36-.54a5.725,5.725,0,0,0,.244-2.319v-2.284c0-2.458-.854-3.452-2.528-3.452a3.962,3.962,0,0,0-2.528.854v4.934Z" transform="translate(-560.193 -469.881)" fill="#434683"/>
      <path id="Path_7" data-name="Path 7" d="M703.443,487.793c-3.417,0-5.143-2.441-5.143-5.4,0-3.452,2.249-6.189,5.805-6.189a4.079,4.079,0,0,1,4.271,4.428v1.116h-7.13c0,2.58,1.1,4.271,3.5,4.271a4.314,4.314,0,0,0,3-1.185l.54.662A6.4,6.4,0,0,1,703.443,487.793Zm-2.179-6.956,4.306-.174c0-1.9-.54-3.539-2-3.539C702.17,477.141,701.421,478.8,701.264,480.837Z" transform="translate(-629.962 -470.046)" fill="#434683"/>
      <path id="Path_8" data-name="Path 8" d="M764.293,454.6a6.181,6.181,0,0,0,.227,2.51c.227.418.628.488,1.395.61v.715c-1.482-.07-1.674-.1-3-.1-1.342,0-1.534.017-3.016.1v-.715c.732-.122,1.168-.192,1.36-.54a6.024,6.024,0,0,0,.244-2.615v-9.763c0-1.1,0-1.639-.244-1.918-.192-.262-.558-.349-1.307-.436v-.75a16.686,16.686,0,0,0,3.94-.8l.54.262a23.345,23.345,0,0,0-.122,2.876V454.6Z" transform="translate(-680.823 -440.9)" fill="#434683"/>
    </g>
  </g>
</svg>
